<svg width="24" height="24" viewBox="0 0 24 24" fill="none" xmlns="http://www.w3.org/2000/svg">
<g clip-path="url(#clip0_1844_392)">
<path d="M19.3029 5.36286C21.6852 8.8656 22.8618 12.8166 22.422 17.3651C22.4201 17.3844 22.4101 17.402 22.3943 17.4136C20.5902 18.7384 18.8422 19.5423 17.1188 20.0755C17.1054 20.0796 17.091 20.0793 17.0777 20.0748C17.0644 20.0704 17.0529 20.0618 17.0447 20.0504C16.6465 19.4964 16.2848 18.9124 15.9678 18.2991C15.9496 18.2629 15.9662 18.2194 16.0037 18.2052C16.5782 17.9887 17.1246 17.7293 17.6501 17.4221C17.6915 17.3978 17.6941 17.3385 17.6559 17.31C17.5444 17.2272 17.4339 17.1402 17.3282 17.0532C17.3084 17.0371 17.2818 17.0339 17.2593 17.0447C13.8476 18.6202 10.1101 18.6202 6.65803 17.0447C6.63561 17.0347 6.60898 17.0381 6.58973 17.054C6.48426 17.141 6.37352 17.2272 6.26303 17.31C6.2248 17.3385 6.22796 17.3978 6.26962 17.4221C6.79514 17.7235 7.34149 17.9887 7.91526 18.2063C7.95244 18.2205 7.97011 18.2629 7.95165 18.2991C7.64156 18.9132 7.27979 19.4972 6.87425 20.0512C6.85658 20.0736 6.82757 20.0839 6.80015 20.0755C5.0849 19.5423 3.33696 18.7384 1.53285 17.4136C1.51782 17.402 1.50701 17.3836 1.50543 17.3643C1.13786 13.4299 1.88698 9.44623 4.62162 5.36207C4.62821 5.35126 4.63823 5.34282 4.64983 5.33781C5.9954 4.72027 7.43694 4.26595 8.94362 4.00648C8.97104 4.00226 8.99846 4.01492 9.0127 4.03918C9.19886 4.36878 9.41165 4.79146 9.55562 5.13688C11.1438 4.8943 12.7567 4.8943 14.3781 5.13688C14.5221 4.79885 14.7275 4.36878 14.9128 4.03918C14.9194 4.02714 14.9297 4.0175 14.9421 4.01163C14.9545 4.00576 14.9684 4.00396 14.9819 4.00648C16.4894 4.26674 17.9309 4.72106 19.2754 5.33781C19.2873 5.34282 19.2971 5.35126 19.3029 5.36286ZM10.363 12.8435C10.3796 11.6804 9.53163 10.718 8.46715 10.718C7.41137 10.718 6.57154 11.672 6.57154 12.8435C6.57154 14.0148 7.42798 14.9688 8.46715 14.9688C9.52319 14.9688 10.363 14.0148 10.363 12.8435ZM17.3722 12.8435C17.3888 11.6804 16.5408 10.718 15.4766 10.718C14.4205 10.718 13.5807 11.672 13.5807 12.8435C13.5807 14.0148 14.4372 14.9688 15.4766 14.9688C16.5408 14.9688 17.3722 14.0148 17.3722 12.8435Z" fill="white"/>
</g>
<defs>
<clipPath id="clip0_1844_392">
<rect width="22" height="16.0864" fill="white" transform="translate(1 4)"/>
</clipPath>
</defs>
</svg>
