<svg width="12" height="12" viewBox="0 0 12 12" fill="none" xmlns="http://www.w3.org/2000/svg">
<mask id="path-1-inside-1_1844_216" fill="white">
<path fill-rule="evenodd" clip-rule="evenodd" d="M1 6.00002C1.84158 3.93979 3.76359 2.5 6.00001 2.5C8.23641 2.5 10.1584 3.93977 11 5.99998C10.1584 8.06021 8.23641 9.5 6 9.5C3.76359 9.5 1.84159 8.06023 1 6.00002Z"/>
</mask>
<path d="M1 6.00002L0.305693 5.7164L0.189838 6.00002L0.305695 6.28364L1 6.00002ZM11 5.99998L11.6943 6.2836L11.8102 5.99998L11.6943 5.71636L11 5.99998ZM1.69431 6.28363C2.43384 4.47321 4.10167 3.25 6.00001 3.25V1.75C3.42552 1.75 1.24932 3.40636 0.305693 5.7164L1.69431 6.28363ZM6.00001 3.25C7.89834 3.25 9.56616 4.4732 10.3057 6.2836L11.6943 5.71636C10.7507 3.40634 8.57449 1.75 6.00001 1.75V3.25ZM10.3057 5.71636C9.56616 7.52678 7.89833 8.75 6 8.75V10.25C8.57449 10.25 10.7507 8.59364 11.6943 6.2836L10.3057 5.71636ZM6 8.75C4.10167 8.75 2.43385 7.5268 1.6943 5.7164L0.305695 6.28364C1.24933 8.59366 3.42552 10.25 6 10.25V8.75Z" fill="#8C8797" mask="url(#path-1-inside-1_1844_216)"/>
<circle cx="6" cy="6" r="1.1875" stroke="#8C8797" stroke-width="0.625"/>
</svg>
