<svg width="25" height="24" viewBox="0 0 25 24" fill="none" xmlns="http://www.w3.org/2000/svg">
<circle cx="12.5" cy="12" r="10.75" stroke="#3C3941" stroke-width="1.5"/>
<g opacity="0.3">
<g clip-path="url(#clip0_1844_564)">
<rect x="3.5" y="3" width="18" height="18" rx="9" fill="#E2193A"/>
<rect x="2.9375" y="15.2344" width="19.125" height="5.76562" fill="#E0AB8B"/>
<path d="M18.2656 6.23438H15.1719L16.5389 9.75L18.2656 6.23438Z" fill="#F1C92B"/>
<g style="mix-blend-mode:overlay" opacity="0.7">
<path fill-rule="evenodd" clip-rule="evenodd" d="M18.1484 6.23438L15.8194 7.85156L15.893 8.08901L16.5389 9.75L18.2656 6.23438H18.1484Z" fill="black"/>
</g>
<path d="M6.73438 6.23438H9.82812L8.46112 9.75L6.73438 6.23438Z" fill="#F1C92B"/>
<g style="mix-blend-mode:overlay" opacity="0.7">
<path fill-rule="evenodd" clip-rule="evenodd" d="M6.85163 6.23438L9.1806 7.85156L9.10698 8.08901L8.46112 9.75L6.73438 6.23438H6.85163Z" fill="black"/>
</g>
<path fill-rule="evenodd" clip-rule="evenodd" d="M12.5 5.67188H9.87694L8.31728 7.78125L7.53745 12.7031L7.96281 13.6172C7.37203 14.2031 5.39646 15.2344 3.92188 15.2344C3.92188 15.2344 6.61583 16.0078 7.96281 17.5547C9.04039 18.7922 9.66426 19.2891 10.7986 19.6641C11.9329 20.0391 12.5 20.0156 12.5 20.0156C12.5 20.0156 13.0671 20.0391 14.2014 19.6641C15.3357 19.2891 15.9596 18.7922 17.0372 17.5547C18.3842 16.0078 21.0781 15.2344 21.0781 15.2344C19.6035 15.2344 17.628 14.2031 17.0372 13.6172L17.4626 12.7031L16.6827 7.78125L15.1231 5.67188H12.5Z" fill="#E8A60F"/>
<path fill-rule="evenodd" clip-rule="evenodd" d="M12.5 5.67188H9.87694L8.31728 7.78125L7.53745 12.7031L7.96281 13.6172C7.37203 14.2031 5.39646 15.2344 3.92188 15.2344C3.92188 15.2344 6.61583 15.3047 7.96281 16.8516C9.04039 18.0891 9.66426 18.5859 10.7986 18.9609C11.9329 19.3359 12.5 19.3125 12.5 19.3125C12.5 19.3125 13.0671 19.3359 14.2014 18.9609C15.3357 18.5859 15.9596 18.0891 17.0372 16.8516C18.3842 15.3047 21.0781 15.2344 21.0781 15.2344C19.6035 15.2344 17.628 14.2031 17.0372 13.6172L17.4626 12.7031L16.6827 7.78125L15.1231 5.67188H12.5Z" fill="#F1C92B"/>
<path fill-rule="evenodd" clip-rule="evenodd" d="M12.5 5.67188H9.87694L8.31728 7.78125L7.53745 12.7031L7.96281 13.6172C7.37203 14.2031 5.39646 15.2344 3.92188 15.2344C3.92188 15.2344 6.61583 15.3047 7.96281 16.8516C9.04039 18.0891 9.66426 18.5859 10.7986 18.9609C11.9329 19.3359 12.5 19.3125 12.5 19.3125C12.5 19.3125 13.0671 19.3359 14.2014 18.9609C15.3357 18.5859 15.9596 18.0891 17.0372 16.8516C18.3842 15.3047 21.0781 15.2344 21.0781 15.2344C19.6035 15.2344 17.628 14.2031 17.0372 13.6172L17.4626 12.7031L16.6827 7.78125L15.1231 5.67188H12.5Z" fill="url(#paint0_linear_1844_564)" fill-opacity="0.1"/>
<g style="mix-blend-mode:overlay" opacity="0.36">
<path fill-rule="evenodd" clip-rule="evenodd" d="M12.5 19.3125C12.5 19.3125 13.0671 19.3359 14.2014 18.9609C15.3357 18.5859 15.9596 18.0891 17.0372 16.8516C18.3842 15.3047 21.0781 15.2344 21.0781 15.2344C19.6035 15.2344 17.628 14.2031 17.0372 13.6172L17.4626 12.7031L16.6827 7.78125L15.1231 5.67188H12.5V19.3125Z" fill="black"/>
</g>
<g style="mix-blend-mode:overlay" opacity="0.48">
<path fill-rule="evenodd" clip-rule="evenodd" d="M11.012 7.18853C11.011 7.14503 10.9644 7.1018 10.8719 7.01584C10.8599 7.00477 10.8484 6.99391 10.8371 6.98332C10.6721 6.82856 10.568 6.73085 10.3177 6.84714C10.0504 6.97139 9.88365 7.21568 10.196 7.29289C10.268 7.31069 10.3341 7.34018 10.3976 7.36858C10.5547 7.43872 10.6967 7.50213 10.8763 7.36588C10.9677 7.27681 11.0131 7.23253 11.012 7.18853ZM11.6166 7.7075C11.5054 7.87036 11.621 8.05754 11.7066 8.11042C11.9484 8.20192 12.1257 7.67474 12.0807 7.47328C12.0357 7.27182 11.6933 7.0603 11.5671 7.156C11.4762 7.22498 11.4953 7.27171 11.5243 7.34272C11.5355 7.37023 11.5482 7.40138 11.5566 7.43889C11.568 7.49019 11.5957 7.51773 11.6194 7.54125C11.6576 7.57931 11.6853 7.60685 11.6166 7.7075ZM11.8416 8.71481C12.0351 8.788 12.1584 9.14206 11.9467 9.18488C11.7349 9.2277 11.4409 9.03448 11.292 8.89615C11.1058 8.72324 11.1463 8.57466 11.3581 8.53184C11.489 8.50537 11.5504 8.54656 11.6354 8.60349C11.6878 8.63867 11.7493 8.67986 11.8416 8.71481ZM10.8251 7.79735C11.0177 7.70787 11.0505 7.75989 11.0858 7.81576C11.0995 7.83747 11.1135 7.85976 11.1375 7.87456C11.171 7.91457 11.23 8.02431 11.1975 8.14317C11.1784 8.21327 11.1111 8.21499 11.0189 8.21734C10.9156 8.21998 10.7811 8.22341 10.6478 8.32452C10.3955 8.51592 10.2799 8.32873 10.391 8.16588C10.5022 8.00302 10.5578 7.9216 10.8251 7.79735Z" fill="black"/>
<path fill-rule="evenodd" clip-rule="evenodd" d="M13.988 7.18853C13.989 7.14503 14.0356 7.1018 14.1281 7.01584C14.1401 7.00477 14.1516 6.99391 14.1629 6.98332C14.3279 6.82856 14.432 6.73085 14.6823 6.84714C14.9496 6.97139 15.1163 7.21568 14.804 7.29289C14.732 7.31069 14.6659 7.34018 14.6024 7.36858C14.4453 7.43872 14.3033 7.50213 14.1237 7.36588C14.0323 7.27681 13.9869 7.23253 13.988 7.18853ZM13.3834 7.70751C13.4946 7.87036 13.379 8.05755 13.2934 8.11043C13.0516 8.20192 12.8743 7.67474 12.9193 7.47328C12.9643 7.27182 13.3067 7.0603 13.4329 7.156C13.5238 7.22498 13.5047 7.27171 13.4757 7.34272L13.4757 7.34272L13.4757 7.34272C13.4645 7.37023 13.4518 7.40139 13.4434 7.43889C13.432 7.49019 13.4043 7.51773 13.3806 7.54126C13.3424 7.57932 13.3147 7.60686 13.3834 7.70751ZM13.1584 8.71481C12.9649 8.788 12.8416 9.14207 13.0533 9.18489C13.2651 9.22771 13.5591 9.03449 13.708 8.89616C13.8942 8.72324 13.8537 8.57466 13.6419 8.53184C13.511 8.50537 13.4496 8.54657 13.3646 8.60349C13.3122 8.63868 13.2507 8.67987 13.1584 8.71481ZM14.1749 7.79735C13.9823 7.70788 13.9495 7.75989 13.9142 7.81576C13.9005 7.83748 13.8865 7.85977 13.8625 7.87457C13.829 7.91458 13.77 8.02431 13.8025 8.14318C13.8216 8.21327 13.8889 8.21499 13.9811 8.21735C14.0844 8.21998 14.2189 8.22342 14.3522 8.32452C14.6045 8.51592 14.7201 8.32874 14.609 8.16588C14.4978 8.00303 14.4422 7.9216 14.1749 7.79735Z" fill="black"/>
</g>
<path fill-rule="evenodd" clip-rule="evenodd" d="M12.5 13.3296L11.3388 13.6072L10.1094 12.8438C10.2004 13.1908 10.4509 14.0653 10.7241 14.7871C10.7409 14.8314 10.757 14.8743 10.7726 14.9158C11.0757 15.7202 11.1868 16.0152 11.817 16.1753C11.9349 16.2052 12.2264 16.2237 12.5272 16.2176C12.799 16.2237 13.0651 16.2052 13.183 16.1753C13.8132 16.0152 13.9243 15.7202 14.2274 14.9158C14.243 14.8743 14.2591 14.8314 14.2759 14.7871C14.5491 14.0653 14.7996 13.1908 14.8906 12.8438L13.6612 13.6072L12.5 13.3296C12.5 13.3296 12.5 13.3296 12.5 13.3296C12.5 13.3296 12.5 13.3296 12.5 13.3296Z" fill="#833646"/>
<path fill-rule="evenodd" clip-rule="evenodd" d="M12.5 13.3296L11.3388 13.6072L10.1094 12.8438C10.2004 13.1908 10.4509 14.0653 10.7241 14.7871C10.7409 14.8314 10.757 14.8743 10.7726 14.9158C11.0757 15.7202 11.1868 16.0152 11.817 16.1753C11.9349 16.2052 12.2264 16.2237 12.5272 16.2176C12.799 16.2237 13.0651 16.2052 13.183 16.1753C13.8132 16.0152 13.9243 15.7202 14.2274 14.9158C14.243 14.8743 14.2591 14.8314 14.2759 14.7871C14.5491 14.0653 14.7996 13.1908 14.8906 12.8438L13.6612 13.6072L12.5 13.3296C12.5 13.3296 12.5 13.3296 12.5 13.3296C12.5 13.3296 12.5 13.3296 12.5 13.3296Z" fill="url(#paint1_linear_1844_564)" fill-opacity="0.4"/>
<path fill-rule="evenodd" clip-rule="evenodd" d="M11.7809 16.1658C11.5636 16.1069 11.4103 16.03 11.2891 15.9181C11.3482 15.656 11.4402 15.375 11.5469 15.375C11.6711 15.375 11.7467 15.8248 11.7809 16.1658ZM13.7109 15.9181C13.5897 16.03 13.4364 16.1069 13.2191 16.1658C13.2533 15.8248 13.3289 15.375 13.4531 15.375C13.5598 15.375 13.6518 15.656 13.7109 15.9181ZM13.5197 13.5734L13.6612 13.6072L14.1911 13.2782C14.0584 13.8509 13.885 14.4609 13.7656 14.4609C13.644 14.4609 13.5638 13.9985 13.5197 13.5734ZM11.4803 13.5734C11.4362 13.9985 11.356 14.4609 11.2344 14.4609C11.115 14.4609 10.9416 13.8509 10.8089 13.2782L11.3388 13.6072L11.4803 13.5734Z" fill="white"/>
<path fill-rule="evenodd" clip-rule="evenodd" d="M11.2344 12.0703L11.5008 11.7188H12.5H13.4992L13.7656 12.0703L12.5 12.7734L11.2344 12.0703Z" fill="#C35C57"/>
<path d="M11.5156 17.2031H13.625C13.4844 17.4375 13.0766 17.9062 12.5703 17.9062C12.0641 17.9062 11.6094 17.4375 11.5156 17.2031Z" fill="#E8A60F"/>
<path d="M10.8125 10.0312L11.3047 11.0859L9.33594 10.5938L8.77344 10.0312L9.33594 9.46875L10.8125 10.0312Z" fill="#121212"/>
<mask id="mask0_1844_564" style="mask-type:alpha" maskUnits="userSpaceOnUse" x="8" y="9" width="4" height="3">
<path d="M10.8125 10.0312L11.3047 11.0859L9.33594 10.5938L8.77344 10.0312L9.33594 9.46875L10.8125 10.0312Z" fill="black"/>
</mask>
<g mask="url(#mask0_1844_564)">
<circle cx="10.25" cy="10.0312" r="0.84375" fill="#F4E943"/>
<circle cx="10.25" cy="10.0312" r="0.421875" fill="#121212"/>
</g>
<path d="M14.1875 10.0312L13.6953 11.0859L15.6641 10.5938L16.2266 10.0312L15.6641 9.46875L14.1875 10.0312Z" fill="#121212"/>
<mask id="mask1_1844_564" style="mask-type:alpha" maskUnits="userSpaceOnUse" x="13" y="9" width="4" height="3">
<path d="M14.1875 10.0312L13.6953 11.0859L15.6641 10.5938L16.2266 10.0312L15.6641 9.46875L14.1875 10.0312Z" fill="black"/>
</mask>
<g mask="url(#mask1_1844_564)">
<circle r="0.84375" transform="matrix(-1 0 0 1 14.75 10.0312)" fill="#F4E943"/>
<circle r="0.421875" transform="matrix(-1 0 0 1 14.75 10.0312)" fill="#121212"/>
</g>
</g>
</g>
<defs>
<linearGradient id="paint0_linear_1844_564" x1="12.5" y1="5.67187" x2="12.5" y2="19.3128" gradientUnits="userSpaceOnUse">
<stop stop-color="white"/>
<stop offset="1" stop-color="white" stop-opacity="0"/>
</linearGradient>
<linearGradient id="paint1_linear_1844_564" x1="12.5" y1="12.8438" x2="12.5" y2="16.2188" gradientUnits="userSpaceOnUse">
<stop/>
<stop offset="1" stop-opacity="0"/>
</linearGradient>
<clipPath id="clip0_1844_564">
<rect x="3.5" y="3" width="18" height="18" rx="9" fill="white"/>
</clipPath>
</defs>
</svg>
